<?xml version="1.0" standalone="no"?>
<!DOCTYPE svg PUBLIC "-//W3C//DTD SVG 20010904//EN"
 "http://www.w3.org/TR/2001/REC-SVG-20010904/DTD/svg10.dtd">
<svg version="1.0" xmlns="http://www.w3.org/2000/svg"
 width="1024.000000pt" height="1024.000000pt" viewBox="0 0 1024.000000 1024.000000"
 preserveAspectRatio="xMidYMid meet">
<g transform="translate(0.000000,1024.000000) scale(0.100000,-0.100000)"
fill="#000000" stroke="none">
<path d="M5008 9390 c-83 -14 -147 -40 -206 -85 -234 -176 -245 -518 -23 -717
28 -26 74 -57 101 -69 l50 -23 0 -237 0 -238 -367 -3 c-342 -4 -374 -6 -447
-26 -179 -50 -301 -119 -433 -245 -142 -136 -245 -313 -283 -484 -17 -74 -20
-128 -20 -345 0 -339 20 -440 122 -613 156 -264 374 -410 683 -455 44 -7 83
-17 87 -24 4 -6 8 -48 8 -93 l0 -83 -375 0 c-411 0 -473 -6 -590 -58 -116 -52
-236 -171 -284 -282 -52 -120 -51 -92 -51 -1463 0 -1386 -1 -1357 54 -1481 33
-73 110 -171 170 -216 122 -91 227 -120 432 -120 l143 0 3 -388 3 -387 27 -58
c31 -66 123 -167 186 -204 101 -60 234 -79 362 -52 140 29 281 148 331 280 18
48 20 76 19 390 0 186 3 357 6 379 l7 40 359 0 360 0 -3 -377 c-2 -334 0 -383
15 -423 50 -135 175 -250 309 -286 112 -30 261 -13 369 42 70 35 166 135 203
209 l30 60 6 385 c3 212 7 386 7 386 1 1 80 4 175 6 153 4 179 8 239 30 150
56 259 150 324 280 66 132 64 69 64 1504 0 825 -4 1321 -10 1355 -5 30 -25 86
-44 124 -68 137 -189 241 -341 292 l-80 27 -412 4 -411 3 -4 67 c-5 114 -3
120 51 127 341 46 606 257 734 584 48 125 57 197 57 476 0 268 -11 371 -50
473 -121 316 -351 527 -668 614 -69 19 -112 22 -427 27 l-350 6 -3 236 -2 236
54 27 c200 98 303 334 237 545 -53 171 -201 299 -373 321 -40 5 -75 9 -78 9
-3 -1 -26 -5 -52 -9z m-15 -224 c30 -23 22 -64 -19 -88 -21 -13 -43 -37 -56
-64 -17 -36 -25 -44 -48 -44 -64 0 -76 69 -24 138 48 62 109 87 147 58z m190
-145 c41 -38 42 -42 42 -101 0 -58 -2 -63 -37 -95 -65 -60 -137 -59 -198 3
-93 93 -32 232 102 232 43 0 54 -5 91 -39z m772 -1312 c88 -28 148 -59 223
-116 105 -80 181 -184 223 -303 22 -61 23 -84 27 -355 4 -329 -2 -378 -64
-495 -69 -132 -186 -233 -325 -281 -51 -17 -95 -22 -209 -26 -80 -2 -158 -9
-173 -15 -50 -19 -67 -53 -67 -129 l0 -69 -515 0 -515 0 0 60 c0 71 -19 114
-58 134 -18 9 -78 15 -187 19 -176 5 -212 14 -328 74 -89 47 -200 154 -244
238 -18 34 -42 96 -53 139 -21 74 -22 96 -18 360 4 272 5 283 30 348 36 97 84
171 155 243 114 115 238 173 403 185 52 4 444 7 870 6 667 -2 782 -4 825 -17z
m583 -2453 c77 -21 137 -60 186 -123 82 -103 76 -16 76 -1284 0 -1108 -1
-1130 -20 -1183 -28 -73 -68 -126 -126 -165 -99 -65 -3 -62 -1605 -59 l-1454
3 -53 29 c-66 37 -116 92 -151 165 l-26 56 0 1160 0 1160 24 53 c34 75 120
152 202 180 l64 21 1415 0 c1183 1 1424 -2 1468 -13z m-2052 -3336 c12 -5 28
-18 34 -30 9 -16 7 -24 -12 -43 -22 -22 -29 -23 -243 -25 -247 -2 -270 2 -270
53 0 20 7 33 21 40 25 13 437 17 470 5z m1661 -16 c19 -27 12 -56 -17 -71 -30
-15 -425 -18 -464 -3 -14 5 -30 18 -36 30 -9 16 -7 24 12 43 23 23 26 23 257
21 218 -1 235 -2 248 -20z m-1643 -230 c19 -18 21 -45 4 -62 -9 -9 -79 -12
-253 -12 -253 0 -265 2 -265 45 0 43 12 45 261 45 203 0 240 -2 253 -16z
m1638 -1 c10 -9 18 -24 18 -33 0 -37 -17 -40 -265 -40 -253 0 -265 2 -265 45
0 43 12 45 259 45 204 0 237 -2 253 -17z m-1642 -223 c25 -25 26 -56 1 -70
-29 -15 -483 -14 -499 2 -19 19 -14 55 10 72 19 13 60 16 245 16 210 0 224 -1
243 -20z m1644 -5 c19 -24 20 -47 4 -63 -17 -17 -489 -17 -506 0 -19 19 -14
55 11 73 19 14 54 16 249 13 214 -3 228 -4 242 -23z m-1774 -229 c0 -8 -25
-27 -55 -41 -62 -31 -84 -29 -155 13 l-45 27 125 5 c69 3 126 7 128 8 1 1 2
-4 2 -12z m1647 -1 c-6 -18 -68 -54 -104 -61 -27 -5 -47 0 -90 22 -31 16 -58
34 -60 39 -2 6 45 10 127 10 82 0 129 -4 127 -10z"/>
<path d="M4286 7300 c-97 -39 -165 -135 -174 -247 -6 -81 12 -143 58 -202 132
-166 394 -139 489 50 68 137 26 289 -105 376 -50 33 -62 37 -137 40 -64 3 -93
-1 -131 -17z m109 -95 c48 -47 18 -128 -52 -141 -27 -5 -37 -1 -63 24 -41 41
-41 81 1 116 39 33 82 34 114 1z m180 -210 c28 -27 30 -37 14 -68 -16 -29 -28
-37 -61 -37 -36 0 -58 24 -58 65 0 61 61 84 105 40z"/>
<path d="M5615 7307 c-135 -53 -205 -164 -192 -305 14 -155 149 -271 303 -259
145 11 252 105 274 241 22 134 -63 278 -189 321 -52 18 -153 19 -196 2z m89
-108 c14 -17 26 -41 26 -54 0 -33 -39 -74 -76 -81 -39 -7 -81 27 -90 73 -5 27
-1 37 24 63 41 41 81 41 116 -1z m181 -204 c32 -32 31 -50 -4 -86 -36 -35 -54
-36 -86 -4 -30 30 -31 54 -4 89 26 33 62 34 94 1z"/>
<path d="M4733 6465 c-63 -27 -86 -101 -53 -169 35 -72 52 -76 378 -76 250 0
281 2 319 19 92 42 98 168 10 221 -30 19 -52 20 -327 20 -228 -1 -302 -4 -327
-15z"/>
<path d="M4513 4854 c-66 -33 -62 17 -63 -1022 -1 -835 1 -945 15 -971 17 -34
61 -61 98 -61 31 0 47 10 805 518 483 323 666 450 677 472 40 76 7 130 -135
224 -58 39 -375 247 -704 463 -637 418 -624 411 -693 377z"/>
<path d="M6942 8859 c-28 -14 -49 -34 -62 -60 -19 -37 -20 -62 -20 -624 l0
-585 -46 0 c-53 0 -84 -14 -84 -38 0 -9 29 -75 65 -147 92 -182 98 -214 92
-545 -4 -283 -7 -301 -62 -411 -15 -30 -42 -75 -60 -100 -18 -26 -40 -60 -49
-77 -15 -30 -15 -32 6 -46 18 -13 53 -16 175 -16 192 0 188 -3 242 163 32 98
43 121 65 132 133 69 226 230 226 388 0 157 -70 290 -195 374 l-55 36 0 732 0
732 -22 33 c-53 77 -137 100 -216 59z"/>
<path d="M3093 7565 c-21 -15 -44 -73 -79 -202 -15 -57 -20 -65 -63 -89 -125
-73 -211 -227 -211 -379 0 -160 86 -315 218 -395 37 -22 44 -33 63 -95 31
-101 64 -172 87 -184 31 -17 302 -15 302 2 0 7 -23 49 -51 92 -140 218 -152
272 -147 642 4 271 5 280 31 361 17 50 49 114 82 164 30 44 55 85 55 90 0 4
-60 8 -133 8 -102 0 -138 -3 -154 -15z"/>
<path d="M2729 5107 c-94 -78 -269 -293 -269 -330 0 -5 213 -167 254 -193 l29
-18 21 28 c12 16 31 40 44 54 21 24 22 30 22 256 0 222 -4 256 -30 256 -3 0
-35 -24 -71 -53z"/>
<path d="M7347 5153 c-4 -3 -7 -114 -7 -245 l0 -238 36 -47 c20 -27 39 -49 43
-51 15 -6 281 189 281 206 0 39 -168 245 -268 328 -67 55 -74 59 -85 47z"/>
<path d="M2382 4627 c-29 -35 -78 -278 -88 -435 -6 -104 -6 -110 14 -121 24
-13 280 -15 300 -3 7 5 19 48 28 95 16 95 50 215 66 235 16 18 0 33 -151 136
-169 115 -157 108 -169 93z"/>
<path d="M7622 4536 c-183 -127 -170 -109 -139 -203 14 -43 33 -118 41 -167 9
-49 21 -93 28 -98 18 -11 290 -10 307 1 43 27 -41 562 -88 560 -9 0 -76 -42
-149 -93z"/>
<path d="M2284 3895 c-9 -23 16 -187 31 -212 14 -21 19 -21 147 -16 73 3 136
9 141 12 4 4 11 52 17 107 8 88 7 100 -7 112 -12 8 -63 12 -170 12 -126 0
-155 -3 -159 -15z"/>
<path d="M7541 3896 c-14 -17 1 -202 17 -218 7 -7 61 -11 143 -11 111 0 134 3
144 17 7 9 18 60 25 112 11 81 11 97 -1 105 -8 5 -82 9 -165 9 -117 0 -154 -3
-163 -14z"/>
<path d="M2330 3526 c-213 -60 -349 -271 -312 -486 20 -115 72 -202 166 -275
73 -56 116 -71 153 -53 l28 13 5 202 5 203 28 27 c22 22 37 28 72 28 60 0 85
-26 93 -96 l7 -54 115 -3 c99 -2 116 0 127 15 9 11 13 58 13 148 0 127 -1 133
-28 176 -48 75 -125 128 -227 155 -62 17 -185 16 -245 0z"/>
<path d="M7590 3526 c-95 -26 -186 -89 -230 -160 -19 -31 -20 -47 -18 -183 l3
-148 120 0 120 0 6 53 c4 29 15 62 24 72 40 44 133 32 160 -20 12 -23 15 -70
15 -215 0 -172 1 -186 20 -205 26 -26 46 -25 106 5 145 72 235 216 236 377 2
250 -187 439 -437 437 -44 0 -100 -6 -125 -13z"/>
</g>
</svg>
